<?xml version="1.0" encoding="UTF-8" standalone="no"?>
<!-- Created with Inkscape (http://www.inkscape.org/) -->

<svg
   xmlns:dc="http://purl.org/dc/elements/1.1/"
   xmlns:cc="http://creativecommons.org/ns#"
   xmlns:rdf="http://www.w3.org/1999/02/22-rdf-syntax-ns#"
   xmlns:svg="http://www.w3.org/2000/svg"
   xmlns="http://www.w3.org/2000/svg"
   xmlns:sodipodi="http://sodipodi.sourceforge.net/DTD/sodipodi-0.dtd"
   xmlns:inkscape="http://www.inkscape.org/namespaces/inkscape"
   width="504.03903"
   height="541.97589"
   id="svg2"
   version="1.1"
   inkscape:version="0.48.5 r10040"
   sodipodi:docname="2016-10-23-20-50-27.svg">
  <defs
     id="defs4" />
  <sodipodi:namedview
     id="base"
     pagecolor="#ffffff"
     bordercolor="#666666"
     borderopacity="1.0"
     inkscape:pageopacity="0.0"
     inkscape:pageshadow="2"
     inkscape:zoom="0.49497475"
     inkscape:cx="88.736926"
     inkscape:cy="297.53662"
     inkscape:document-units="px"
     inkscape:current-layer="layer1"
     showgrid="false"
     inkscape:window-width="1366"
     inkscape:window-height="664"
     inkscape:window-x="-8"
     inkscape:window-y="-8"
     inkscape:window-maximized="1"
     fit-margin-top="0"
     fit-margin-left="0"
     fit-margin-right="0"
     fit-margin-bottom="0" />
  <metadata
     id="metadata7">
    <rdf:RDF>
      <cc:Work
         rdf:about="">
        <dc:format>image/svg+xml</dc:format>
        <dc:type
           rdf:resource="http://purl.org/dc/dcmitype/StillImage" />
        <dc:title></dc:title>
      </cc:Work>
    </rdf:RDF>
  </metadata>
  <g
     inkscape:label="Layer 1"
     inkscape:groupmode="layer"
     id="layer1"
     transform="translate(-279.11237,-410.38709)">
    <path
       inkscape:connector-curvature="0"
       id="path3517"
       d="m 432.13823,519.48711 c -19.79286,0.50145 -35.68399,16.70933 -35.68399,36.62304 0,20.22979 16.40686,36.62304 36.63665,36.62304 20.2298,0 36.62304,-16.39325 36.62304,-36.62304 0,-20.2298 -16.39324,-36.62304 -36.62304,-36.62304 -0.31609,0 -0.63849,-0.008 -0.95266,0 z m 0.95266,18.03253 c 10.2683,0 18.59051,8.32221 18.59051,18.59051 0,10.2683 -8.32221,18.59052 -18.59051,18.59052 -10.2683,0 -18.59052,-8.32222 -18.59052,-18.59052 0,-10.2683 8.32222,-18.59051 18.59052,-18.59051 z"
       style="fill:#d40000;fill-opacity:1;fill-rule:nonzero;stroke:none" />
    <path
       inkscape:connector-curvature="0"
       id="path2999"
       d="m 454.58259,792.75469 c -2.74582,-13.4349 -6.76202,-24.1246 -12.31759,-32.7851 -2.97191,-4.6329 -23.6895,-26.069 -72.12424,-74.62553 l -67.95461,-68.12552 209.15107,-0.74875 c 1.52768,166.9726 0.74352,2.20854 -0.43375,168.1494 -17.73372,0.1813 -34.32101,5.3183 -47.43279,14.6897 -2.51197,1.7954 -5.03076,3.5439 -5.59732,3.8856 -0.63672,0.384 -1.89341,-3.6027 -3.29077,-10.4398 z"
       style="fill:#41a4f4"
       sodipodi:nodetypes="ssscccsss" />
    <path
       inkscape:connector-curvature="0"
       id="path2995"
       d="m 558.18366,801.98816 c -11.29926,-8.27417 -26.5362,-13.90783 -41.75,-15.43657 l -7.25,-0.72849 0,-84.67665 0,-84.67666 104.73124,0 104.73124,0 -9.7312,9.91759 c -5.3522,5.45467 -9.7313,10.25208 -9.7313,10.66091 0,0.40883 11.1796,0.74333 24.8435,0.74333 21.9843,0 25.4924,0.22672 30.483,1.97007 14.3761,5.02188 24.8249,17.3003 27.6659,32.51005 1.3005,6.96272 1.3005,29.67094 0,36.63365 -2.841,15.20975 -13.2898,27.48818 -27.6659,32.51005 -5.393,1.88391 -9.0416,1.97006 -83.43458,1.97006 l -77.795,0 -6.12754,7.36111 c -11.09831,13.3326 -16.5992,25.05906 -20.47787,43.65344 -1.27054,6.09102 -2.4634,11.19631 -2.65079,11.34511 -0.18738,0.14876 -2.8157,-1.54188 -5.8407,-3.757 z m 189.07768,-80.0681 c 5.2268,-1.58997 10.3348,-6.1056 12.8325,-11.34431 1.8418,-3.86297 2.0898,-6.23475 2.0898,-19.98719 0,-17.68975 -1.1658,-21.84803 -7.646,-27.27143 -5.8546,-4.89982 -8.5434,-5.21899 -43.9641,-5.21899 l -32.87816,0 -31.25586,31.7229 c -17.19072,17.44757 -31.25586,32.06826 -31.25586,32.49042 0,1.31211 127.72188,0.93364 132.07768,-0.3914 z"
       style="fill:#2095f2"
       sodipodi:nodetypes="sscccccsssssssscsscsssssscsss" />
    <g
       transform="translate(190.20586,12.300107)"
       id="g3295">
      <path
         transform="translate(377.41425,445.67487)"
         d="m 29.387161,410.27991 c 0,46.45161 -37.6564723,84.10808 -84.108085,84.10808 -46.451616,0 -84.108086,-37.65647 -84.108086,-84.10808 0,-46.45162 37.65647,-84.10809 84.108086,-84.10809 46.4516127,0 84.108085,37.65647 84.108085,84.10809 z"
         sodipodi:ry="84.108086"
         sodipodi:rx="84.108086"
         sodipodi:cy="410.27991"
         sodipodi:cx="-54.720924"
         id="path3287"
         style="fill:#fdf39c;fill-opacity:1;fill-rule:nonzero;stroke:none"
         sodipodi:type="arc" />
      <path
         inkscape:transform-center-x="11.270769"
         inkscape:transform-center-y="-8.2669166"
         sodipodi:open="true"
         sodipodi:end="3.1415927"
         sodipodi:start="0"
         sodipodi:type="arc"
         style="fill:#fee939;fill-opacity:1;fill-rule:nonzero;stroke:none"
         id="path3289"
         sodipodi:cx="-54.720924"
         sodipodi:cy="410.27991"
         sodipodi:rx="84.108086"
         sodipodi:ry="84.108086"
         d="m 29.387161,410.27991 c 0,46.45161 -37.6564723,84.10808 -84.108085,84.10808 -46.451616,0 -84.108086,-37.65647 -84.108086,-84.10808 0,0 0,-10e-6 0,-10e-6"
         transform="matrix(-0.52115995,0.59258795,-0.59258795,-0.52115995,537.3019,1102.2032)" />
      <path
         transform="matrix(0.52065185,-0.59303442,0.59303442,0.52065185,107.87378,609.89038)"
         d="m 29.387161,410.27991 c 0,46.45161 -37.6564723,84.10808 -84.108085,84.10808 -46.451616,0 -84.108086,-37.65647 -84.108086,-84.10808 0,0 0,-10e-6 0,-10e-6"
         sodipodi:ry="84.108086"
         sodipodi:rx="84.108086"
         sodipodi:cy="410.27991"
         sodipodi:cx="-54.720924"
         id="path3291"
         style="fill:#fec006;fill-opacity:1;fill-rule:nonzero;stroke:none"
         sodipodi:type="arc"
         sodipodi:start="0"
         sodipodi:end="3.1415927"
         sodipodi:open="true"
         inkscape:transform-center-y="8.2481568"
         inkscape:transform-center-x="-11.292149" />
      <path
         inkscape:connector-curvature="0"
         id="path3293"
         d="m 319.06909,900.0735 0,-4.88128 -4.25,-1.09526 c -8.46592,-2.18173 -14.52455,-7.87491 -16.64622,-15.64218 -2.0321,-7.43932 -1.98126,-7.5 6.28493,-7.5 l 7.38871,0 0.64529,3.43973 c 1.52061,8.1055 11.8785,11.41291 17.65421,5.6372 5.86208,-5.86208 2.45538,-13.25587 -7.86842,-17.07736 -14.34104,-5.30849 -20.91145,-11.72131 -21.90864,-21.38315 -1.08372,-10.50024 3.92267,-18.31033 13.89619,-21.67835 l 5.30395,-1.79113 0.2999,-5.57347 0.29991,-5.57347 3.95009,0 3.9501,0 0,5.53139 c 0,4.38709 0.36203,5.64771 1.75,6.09374 10.93391,3.51354 16.24748,9.2533 17.85132,19.28311 l 0.6543,4.09177 -7.62781,0 c -7.02275,-10e-6 -7.62781,-0.1626 -7.62781,-2.04967 0,-2.89119 -2.66618,-7.70132 -4.94461,-8.9207 -8.07492,-4.32156 -16.43729,4.78271 -12.00312,13.06803 0.57875,1.0814 6.13301,4.39936 12.34281,7.37321 12.27301,5.87753 16.75447,9.80487 18.54479,16.25179 3.38637,12.19424 -2.18473,22.56072 -13.98856,26.02934 l -5.94854,1.74799 -0.001,4.75 -10e-4,4.75 -4,0 -4,0 0,-4.88128 z"
         style="fill:#be350b" />
    </g>
    <g
       id="g3458"
       transform="translate(-24.243661,105.03556)">
      <path
         inkscape:connector-curvature="0"
         id="rect3345"
         d="m 333.7525,465.19254 c -16.83964,0 -30.39647,10.83899 -30.39647,24.3125 0,13.47351 13.55683,24.3125 30.39647,24.3125 l 202.67483,0 0,-48.625 -202.67483,0 z"
         style="fill:#8fc9f7;fill-opacity:1;fill-rule:nonzero;stroke:none" />
      <path
         inkscape:connector-curvature="0"
         style="fill:#63b4f5;fill-opacity:1;fill-rule:nonzero;stroke:none"
         d="m 738.10212,465.19254 c 16.8397,0 30.3965,10.83899 30.3965,24.3125 0,13.47351 -13.5568,24.3125 -30.3965,24.3125 l -202.67479,0 0,-48.625 202.67479,0 z"
         id="path3350" />
    </g>
    <path
       style="fill:#2095f2;fill-opacity:1;fill-rule:nonzero;stroke:none"
       d="m 347.85443,410.39229 c -29.07331,0.73658 -52.41545,24.54399 -52.41545,53.79481 0,29.71511 24.09968,53.7948 53.81479,53.7948 29.71512,0 53.79481,-24.07969 53.79481,-53.7948 0,-29.71512 -24.07969,-53.79481 -53.79481,-53.79481 -0.4643,0 -0.93786,-0.0117 -1.39934,0 z m 1.39934,26.4876 c 15.08289,0 27.30721,12.22432 27.30721,27.30721 0,15.08288 -12.22432,27.30721 -27.30721,27.30721 -15.08288,0 -27.30721,-12.22433 -27.30721,-27.30721 0,-15.08289 12.22433,-27.30721 27.30721,-27.30721 z"
       id="path3486"
       inkscape:connector-curvature="0" />
    <path
       style="fill:#800080;fill-opacity:1;fill-rule:nonzero;stroke:none"
       d="m 597.49185,448.77762 c -26.34376,0.66741 -47.49443,22.23966 -47.49443,48.74428 0,26.9253 21.83709,48.74428 48.7624,48.74428 26.92532,0 48.74428,-21.81898 48.74428,-48.74428 0,-26.92532 -21.81896,-48.74428 -48.74428,-48.74428 -0.42071,0 -0.84982,-0.0106 -1.26797,0 z m 1.26797,24.00081 c 13.66683,0 24.74347,11.07664 24.74347,24.74347 0,13.66683 -11.07664,24.74348 -24.74347,24.74348 -13.66683,0 -24.74349,-11.07665 -24.74349,-24.74348 0,-13.66683 11.07666,-24.74347 24.74349,-24.74347 z"
       id="path3519"
       inkscape:connector-curvature="0" />
    <path
       inkscape:connector-curvature="0"
       id="path3521"
       d="m 477.67293,436.65432 c -18.15512,0.45996 -32.73137,15.32674 -32.73137,33.59273 0,18.5559 15.0493,33.59272 33.60521,33.59272 18.55592,0 33.59273,-15.03682 33.59273,-33.59272 0,-18.55592 -15.03681,-33.59273 -33.59273,-33.59273 -0.28994,0 -0.58566,-0.007 -0.87384,0 z m 0.87384,16.54046 c 9.41867,0 17.05227,7.6336 17.05227,17.05227 0,9.41866 -7.6336,17.05227 -17.05227,17.05227 -9.41866,0 -17.05228,-7.63361 -17.05228,-17.05227 0,-9.41867 7.63362,-17.05227 17.05228,-17.05227 z"
       style="fill:#fec006;fill-opacity:1;fill-rule:nonzero;stroke:none" />
  </g>
</svg>
